<svg data-v-423bf9ae="" xmlns="http://www.w3.org/2000/svg" viewBox="0 0 1483.195237723066 193" class="fontAboveSlogan"><!----><!----><!----><g data-v-423bf9ae="" id="751273d3-68f0-4aa2-b841-7c4667e4c34c" fill="#000000" transform="matrix(7.159905251650551,0,0,7.159905251650551,508.6301181497411,-24.806062448512577)"><path d="M7.28 9.34L7.28 9.34L7.28 9.34Q7.73 9.34 7.99 9.59L7.99 9.59L7.99 9.59Q8.25 9.84 8.25 10.29L8.25 10.29L8.25 10.29Q8.25 10.40 8.23 10.52L8.23 10.52L8.23 10.52Q8.22 10.64 8.18 10.72L8.18 10.72L8.18 10.72Q7.99 10.70 7.77 10.68L7.77 10.68L7.77 10.68Q7.55 10.65 7.24 10.65L7.24 10.65L7.24 10.65Q6.61 10.65 5.98 10.77L5.98 10.77L5.98 10.77Q5.35 10.88 4.77 10.95L4.77 10.95L4.77 10.95Q4.14 12.43 3.74 13.73L3.74 13.73L3.74 13.73Q3.33 15.04 3.11 16.31L3.11 16.31L3.11 16.31Q2.63 16.20 2.27 15.90L2.27 15.90L2.27 15.90Q1.90 15.61 1.58 15.08L1.58 15.08L1.58 15.08Q1.68 14.85 1.82 14.54L1.82 14.54L1.82 14.54Q1.96 14.22 2.16 13.74L2.16 13.74L2.16 13.74Q2.35 13.26 2.63 12.56L2.63 12.56L2.63 12.56Q2.90 11.87 3.28 10.91L3.28 10.91L3.28 10.91Q2.69 10.71 2.51 10.22L2.51 10.22L2.51 10.22Q2.58 10.15 2.90 10.06L2.90 10.06L2.90 10.06Q3.22 9.97 3.68 9.86L3.68 9.86L3.68 9.86Q3.89 9.31 4.05 8.88L4.05 8.88L4.05 8.88Q4.20 8.46 4.33 8.07L4.33 8.07L4.33 8.07Q4.45 7.69 4.56 7.32L4.56 7.32L4.56 7.32Q4.66 6.94 4.75 6.52L4.75 6.52L4.68 6.52L4.68 6.52Q4.14 6.52 3.81 6.27L3.81 6.27L3.81 6.27Q3.49 6.02 3.49 5.61L3.49 5.61L3.49 5.61Q3.49 5.50 3.52 5.35L3.52 5.35L3.52 5.35Q3.56 5.19 3.61 5.08L3.61 5.08L3.61 5.08Q3.88 5.12 4.14 5.14L4.14 5.14L4.14 5.14Q4.40 5.15 4.82 5.15L4.82 5.15L4.82 5.15Q5.70 5.15 6.47 5.10L6.47 5.10L6.47 5.10Q7.24 5.05 7.86 5.00L7.86 5.00L7.86 5.00Q8.48 4.94 8.93 4.89L8.93 4.89L8.93 4.89Q9.38 4.84 9.62 4.84L9.62 4.84L9.62 4.84Q9.94 4.84 10.19 5.18L10.19 5.18L10.19 5.18Q10.44 5.52 10.58 6.13L10.58 6.13L10.58 6.13Q10.14 6.09 9.86 6.08L9.86 6.08L9.86 6.08Q9.59 6.06 9.38 6.06L9.38 6.06L9.38 6.06Q8.67 6.06 8.07 6.13L8.07 6.13L8.07 6.13Q7.48 6.19 6.94 6.27L6.94 6.27L6.94 6.27Q6.86 6.40 6.75 6.59L6.75 6.59L6.75 6.59Q6.65 6.79 6.48 7.15L6.48 7.15L6.48 7.15Q6.31 7.50 6.05 8.08L6.05 8.08L6.05 8.08Q5.80 8.65 5.40 9.53L5.40 9.53L5.40 9.53Q5.95 9.45 6.45 9.39L6.45 9.39L6.45 9.39Q6.94 9.34 7.28 9.34ZM8.50 14.90L8.50 14.90L8.50 14.90Q8.57 14.49 8.74 13.82L8.74 13.82L8.74 13.82Q8.92 13.16 9.16 12.41L9.16 12.41L9.16 12.41Q9.39 11.66 9.66 10.91L9.66 10.91L9.66 10.91Q9.93 10.15 10.18 9.55L10.18 9.55L10.18 9.55Q10.36 9.11 10.50 8.87L10.50 8.87L10.50 8.87Q10.64 8.62 10.81 8.46L10.81 8.46L10.81 8.46Q11.00 8.48 11.21 8.55L11.21 8.55L11.21 8.55Q11.42 8.62 11.62 8.72L11.62 8.72L11.62 8.72Q11.82 8.82 11.97 8.93L11.97 8.93L11.97 8.93Q12.12 9.03 12.21 9.13L12.21 9.13L12.21 9.13Q11.83 9.58 11.54 10.15L11.54 10.15L11.54 10.15Q11.26 10.72 10.96 11.62L10.96 11.62L10.96 11.62Q11.72 10.95 12.30 10.33L12.30 10.33L12.30 10.33Q12.88 9.72 13.38 8.96L13.38 8.96L13.38 8.96Q13.47 8.89 13.68 8.89L13.68 8.89L13.68 8.89Q13.87 8.89 14.06 8.95L14.06 8.95L14.06 8.95Q14.24 9.02 14.31 9.13L14.31 9.13L14.31 9.13Q14.06 9.80 14.06 10.46L14.06 10.46L14.06 10.46Q14.06 11.07 14.24 11.38L14.24 11.38L14.24 11.38Q14.22 11.47 14.05 11.70L14.05 11.70L14.05 11.70Q13.87 11.94 13.66 12.15L13.66 12.15L13.66 12.15Q13.29 11.96 12.99 11.61L12.99 11.61L12.99 11.61Q12.70 11.27 12.56 10.86L12.56 10.86L12.56 10.86Q11.90 11.33 11.44 11.77L11.44 11.77L11.44 11.77Q10.98 12.21 10.65 12.75L10.65 12.75L10.65 12.75Q10.32 13.29 10.09 13.99L10.09 13.99L10.09 13.99Q9.86 14.69 9.65 15.65L9.65 15.65L9.65 15.65Q9.52 15.64 9.35 15.56L9.35 15.56L9.35 15.56Q9.17 15.48 9.00 15.37L9.00 15.37L9.00 15.37Q8.82 15.26 8.68 15.13L8.68 15.13L8.68 15.13Q8.54 15.01 8.50 14.90ZM14.49 14.24L14.49 14.24L14.49 14.24Q14.49 14.11 14.51 13.92L14.51 13.92L14.51 13.92Q14.53 13.73 14.59 13.42L14.59 13.42L14.59 13.42Q14.64 13.10 14.73 12.66L14.73 12.66L14.73 12.66Q14.83 12.21 14.97 11.58L14.97 11.58L14.97 11.58Q14.99 11.44 15.09 11.13L15.09 11.13L15.09 11.13Q15.19 10.82 15.35 10.48L15.35 10.48L15.35 10.48Q15.51 10.14 15.74 9.81L15.74 9.81L15.74 9.81Q15.97 9.49 16.30 9.34L16.30 9.34L16.30 9.34Q16.53 9.39 16.93 9.63L16.93 9.63L16.93 9.63Q17.32 9.86 17.60 10.26L17.60 10.26L17.60 10.26Q17.28 10.63 17.06 10.99L17.06 10.99L17.06 10.99Q16.84 11.35 16.67 11.75L16.67 11.75L16.67 11.75Q16.49 12.14 16.34 12.56L16.34 12.56L16.34 12.56Q16.20 12.98 16.02 13.44L16.02 13.44L16.02 13.44Q15.86 13.83 15.74 14.25L15.74 14.25L15.74 14.25Q15.61 14.66 15.60 14.97L15.60 14.97L15.60 14.97Q15.60 15.22 15.59 15.32L15.59 15.32L15.59 15.32Q15.58 15.43 15.51 15.43L15.51 15.43L15.51 15.43Q15.46 15.43 15.29 15.36L15.29 15.36L15.29 15.36Q15.12 15.29 14.95 15.14L14.95 15.14L14.95 15.14Q14.77 14.99 14.63 14.77L14.63 14.77L14.63 14.77Q14.49 14.55 14.49 14.24ZM17.16 8.16L17.16 8.16L17.16 8.16Q17.16 8.08 17.21 7.91L17.21 7.91L17.21 7.91Q17.14 7.84 17.09 7.70L17.09 7.70L17.09 7.70Q17.04 7.56 17.04 7.45L17.04 7.45L17.04 7.45Q17.04 7.32 17.07 7.11L17.07 7.11L17.07 7.11Q17.11 6.89 17.16 6.64L17.16 6.64L17.16 6.64Q17.22 6.38 17.30 6.11L17.30 6.11L17.30 6.11Q17.39 5.84 17.47 5.61L17.47 5.61L17.47 5.61Q17.64 5.61 17.89 5.71L17.89 5.71L17.89 5.71Q18.13 5.80 18.38 5.94L18.38 5.94L18.38 5.94Q18.63 6.09 18.84 6.27L18.84 6.27L18.84 6.27Q19.05 6.44 19.17 6.59L19.17 6.59L19.17 6.59Q19.01 6.75 18.76 7.02L18.76 7.02L18.76 7.02Q18.51 7.29 18.27 7.59L18.27 7.59L18.27 7.59Q18.03 7.90 17.84 8.16L17.84 8.16L17.84 8.16Q17.64 8.43 17.58 8.54L17.58 8.54L17.58 8.54Q17.42 8.51 17.29 8.39L17.29 8.39L17.29 8.39Q17.16 8.27 17.16 8.16ZM22.79 9.38L22.79 9.38L22.79 9.38Q22.74 10.25 22.48 10.87L22.48 10.87L22.48 10.87Q22.23 11.49 21.76 11.96L21.76 11.96L21.76 11.96Q21.29 12.43 20.62 12.81L20.62 12.81L20.62 12.81Q19.95 13.19 19.05 13.54L19.05 13.54L19.05 13.54Q19.05 13.62 19.05 13.71L19.05 13.71L19.05 13.71Q19.04 13.80 19.04 13.90L19.04 13.90L19.04 13.90Q19.04 14.08 19.07 14.28L19.07 14.28L19.07 14.28Q19.10 14.48 19.17 14.64L19.17 14.64L19.17 14.64Q19.24 14.81 19.36 14.92L19.36 14.92L19.36 14.92Q19.49 15.02 19.68 15.02L19.68 15.02L19.68 15.02Q20.06 15.02 20.43 14.85L20.43 14.85L20.43 14.85Q20.79 14.69 21.12 14.44L21.12 14.44L21.12 14.44Q21.45 14.20 21.73 13.91L21.73 13.91L21.73 13.91Q22.02 13.62 22.25 13.38L22.25 13.38L22.25 13.38Q22.39 13.51 22.48 13.62L22.48 13.62L22.48 13.62Q21.85 14.46 21.11 15.02L21.11 15.02L21.11 15.02Q20.36 15.57 19.68 15.72L19.68 15.72L19.68 15.72Q18.72 15.61 18.18 15.02L18.18 15.02L18.18 15.02Q17.64 14.42 17.64 13.58L17.64 13.58L17.64 13.58Q17.64 13.01 17.80 12.41L17.80 12.41L17.80 12.41Q17.96 11.82 18.25 11.26L18.25 11.26L18.25 11.26Q18.54 10.71 18.92 10.22L18.92 10.22L18.92 10.22Q19.31 9.73 19.75 9.37L19.75 9.37L19.75 9.37Q20.19 9.00 20.66 8.79L20.66 8.79L20.66 8.79Q21.13 8.58 21.59 8.58L21.59 8.58L21.59 8.58Q22.23 8.67 22.79 9.38ZM21.83 9.84L21.83 9.84L21.83 9.84Q21.45 9.90 21.04 10.15L21.04 10.15L21.04 10.15Q20.64 10.40 20.28 10.82L20.28 10.82L20.28 10.82Q19.92 11.24 19.63 11.80L19.63 11.80L19.63 11.80Q19.33 12.36 19.17 13.01L19.17 13.01L19.17 13.01Q20.29 12.45 21.03 11.63L21.03 11.63L21.03 11.63Q21.77 10.81 21.83 9.84ZM25.70 8.39L25.70 8.39L25.70 8.39Q26.07 8.50 26.39 8.88L26.39 8.88L26.39 8.88Q26.71 9.27 26.87 9.73L26.87 9.73L26.87 9.73Q26.71 10.11 26.39 10.64L26.39 10.64L26.39 10.64Q26.07 11.17 25.75 11.72L25.75 11.72L25.75 11.72Q25.42 12.28 25.16 12.78L25.16 12.78L25.16 12.78Q24.91 13.27 24.86 13.59L24.86 13.59L24.86 13.59Q25.09 13.36 25.36 13.04L25.36 13.04L25.36 13.04Q25.63 12.73 25.89 12.41L25.89 12.41L25.89 12.41Q26.15 12.10 26.38 11.84L26.38 11.84L26.38 11.84Q26.60 11.58 26.73 11.45L26.73 11.45L26.73 11.45Q26.99 11.17 27.36 10.80L27.36 10.80L27.36 10.80Q27.72 10.43 28.12 10.10L28.12 10.10L28.12 10.10Q28.52 9.77 28.92 9.54L28.92 9.54L28.92 9.54Q29.33 9.31 29.67 9.31L29.67 9.31L29.67 9.31Q30.03 9.31 30.27 9.55L30.27 9.55L30.27 9.55Q30.52 9.80 30.66 10.07L30.66 10.07L30.66 10.07Q30.66 10.09 30.55 10.14L30.55 10.14L30.55 10.14Q30.45 10.19 30.25 10.42L30.25 10.42L30.25 10.42Q30.06 10.67 29.81 11.11L29.81 11.11L29.81 11.11Q29.57 11.55 29.34 12.06L29.34 12.06L29.34 12.06Q29.11 12.57 28.95 13.10L28.95 13.10L28.95 13.10Q28.80 13.64 28.80 14.07L28.80 14.07L28.80 14.07Q28.80 14.42 28.89 14.52L28.89 14.52L28.89 14.52Q28.98 14.62 29.15 14.62L29.15 14.62L29.15 14.62Q29.30 14.62 29.47 14.55L29.47 14.55L29.47 14.55Q29.64 14.48 29.74 14.48L29.74 14.48L29.74 14.48Q29.79 14.50 29.83 14.60L29.83 14.60L29.83 14.60Q29.86 14.69 29.86 14.76L29.86 14.76L29.86 14.76Q29.75 14.85 29.60 14.95L29.60 14.95L29.60 14.95Q29.44 15.05 29.27 15.13L29.27 15.13L29.27 15.13Q29.11 15.22 28.95 15.27L28.95 15.27L28.95 15.27Q28.78 15.33 28.66 15.33L28.66 15.33L28.66 15.33Q28.25 15.33 27.99 15.21L27.99 15.21L27.99 15.21Q27.73 15.09 27.59 14.90L27.59 14.90L27.59 14.90Q27.44 14.70 27.38 14.43L27.38 14.43L27.38 14.43Q27.33 14.15 27.33 13.85L27.33 13.85L27.33 13.85Q27.33 13.68 27.36 13.47L27.36 13.47L27.36 13.47Q27.38 13.26 27.47 12.97L27.47 12.97L27.47 12.97Q27.55 12.68 27.71 12.29L27.71 12.29L27.71 12.29Q27.86 11.89 28.10 11.33L28.10 11.33L28.10 11.33Q28.07 11.33 27.72 11.52L27.72 11.52L27.72 11.52Q27.37 11.72 26.96 12.12L26.96 12.12L26.96 12.12Q26.31 12.75 25.78 13.37L25.78 13.37L25.78 13.37Q25.26 13.99 24.71 14.74L24.71 14.74L24.71 14.74Q24.40 15.18 24.17 15.48L24.17 15.48L24.17 15.48Q23.94 15.78 23.77 15.88L23.77 15.88L23.77 15.88Q23.48 15.71 23.34 15.41L23.34 15.41L23.34 15.41Q23.20 15.11 23.13 14.78L23.13 14.78L23.13 14.78Q23.13 14.52 23.20 14.11L23.20 14.11L23.20 14.11Q23.28 13.71 23.41 13.21L23.41 13.21L23.41 13.21Q23.55 12.71 23.74 12.17L23.74 12.17L23.74 12.17Q23.94 11.62 24.18 11.07L24.18 11.07L24.18 11.07Q24.71 9.84 25.15 9.14L25.15 9.14L25.15 9.14Q25.59 8.44 25.70 8.39ZM34.05 8.64L34.05 8.64L34.05 8.64Q34.33 8.64 34.69 8.81L34.69 8.81L34.69 8.81Q35.06 8.97 35.34 9.24L35.34 9.24L35.34 9.24Q35.27 8.68 35.16 8.18L35.16 8.18L35.16 8.18Q35.06 7.69 34.85 7.15L34.85 7.15L34.85 7.15Q34.65 6.62 34.31 5.99L34.31 5.99L34.31 5.99Q33.98 5.36 33.47 4.55L33.47 4.55L33.47 4.55Q33.52 4.42 33.66 4.26L33.66 4.26L33.66 4.26Q33.81 4.09 34.00 3.94L34.00 3.94L34.00 3.94Q34.19 3.79 34.39 3.68L34.39 3.68L34.39 3.68Q34.59 3.57 34.78 3.54L34.78 3.54L34.78 3.54Q35.17 3.98 35.52 4.63L35.52 4.63L35.52 4.63Q35.87 5.28 36.13 6.03L36.13 6.03L36.13 6.03Q36.40 6.78 36.55 7.57L36.55 7.57L36.55 7.57Q36.69 8.37 36.69 9.10L36.69 9.10L36.69 9.10Q36.69 9.83 36.53 10.60L36.53 10.60L36.53 10.60Q36.37 11.37 36.09 12.10L36.09 12.10L36.09 12.10Q35.80 12.84 35.42 13.50L35.42 13.50L35.42 13.50Q35.04 14.15 34.60 14.67L34.60 14.67L34.60 14.67Q34.16 15.19 33.68 15.52L33.68 15.52L33.68 15.52Q33.21 15.85 32.73 15.93L32.73 15.93L32.73 15.93Q31.77 15.82 31.25 15.31L31.25 15.31L31.25 15.31Q30.74 14.80 30.74 13.90L30.74 13.90L30.74 13.90Q30.74 13.43 30.89 12.87L30.89 12.87L30.89 12.87Q31.04 12.31 31.28 11.75L31.28 11.75L31.28 11.75Q31.53 11.20 31.86 10.68L31.86 10.68L31.86 10.68Q32.19 10.15 32.56 9.73L32.56 9.73L32.56 9.73Q32.93 9.31 33.31 9.02L33.31 9.02L33.31 9.02Q33.68 8.72 34.05 8.64ZM32.62 15.37L32.62 15.37L32.62 15.37Q33.11 15.20 33.60 14.63L33.60 14.63L33.60 14.63Q34.09 14.06 34.48 13.28L34.48 13.28L34.48 13.28Q34.87 12.50 35.12 11.61L35.12 11.61L35.12 11.61Q35.36 10.72 35.36 9.90L35.36 9.90L35.36 9.90Q35.36 9.66 35.36 9.60L35.36 9.60L35.36 9.60Q35.36 9.55 35.35 9.49L35.35 9.49L35.35 9.49Q35.01 9.63 34.64 9.97L34.64 9.97L34.64 9.97Q34.26 10.30 33.88 10.75L33.88 10.75L33.88 10.75Q33.50 11.19 33.17 11.70L33.17 11.70L33.17 11.70Q32.83 12.22 32.56 12.74L32.56 12.74L32.56 12.74Q32.30 13.26 32.14 13.73L32.14 13.73L32.14 13.73Q31.99 14.21 31.99 14.57L31.99 14.57L31.99 14.57Q31.99 15.27 32.62 15.37ZM46.24 5.74L46.24 5.74L46.24 5.74Q46.28 5.98 46.30 6.07L46.30 6.07L46.30 6.07Q46.33 6.16 46.33 6.31L46.33 6.31L46.33 6.31Q46.33 6.78 46.12 7.18L46.12 7.18L46.12 7.18Q45.92 7.57 45.57 7.74L45.57 7.74L45.57 7.74Q45.29 7.36 44.88 7.09L44.88 7.09L44.88 7.09Q44.48 6.82 43.99 6.64L43.99 6.64L43.99 6.64Q43.51 6.47 42.99 6.38L42.99 6.38L42.99 6.38Q42.48 6.30 41.99 6.30L41.99 6.30L41.99 6.30Q41.50 6.30 41.07 6.38L41.07 6.38L41.07 6.38Q40.64 6.45 40.31 6.59L40.31 6.59L40.31 6.59Q39.98 6.72 39.79 6.92L39.79 6.92L39.79 6.92Q39.61 7.11 39.61 7.36L39.61 7.36L39.61 7.36Q39.65 7.67 39.98 7.99L39.98 7.99L39.98 7.99Q40.32 8.30 40.81 8.60L40.81 8.60L40.81 8.60Q41.30 8.90 41.89 9.20L41.89 9.20L41.89 9.20Q42.49 9.49 43.06 9.76L43.06 9.76L43.06 9.76Q43.78 10.09 44.30 10.38L44.30 10.38L44.30 10.38Q44.81 10.67 45.15 11.01L45.15 11.01L45.15 11.01Q45.49 11.35 45.65 11.79L45.65 11.79L45.65 11.79Q45.82 12.22 45.82 12.84L45.82 12.84L45.82 12.84Q45.82 13.55 45.58 14.18L45.58 14.18L45.58 14.18Q45.35 14.80 44.89 15.26L44.89 15.26L44.89 15.26Q44.44 15.72 43.79 15.98L43.79 15.98L43.79 15.98Q43.15 16.24 42.35 16.24L42.35 16.24L42.35 16.24Q41.57 16.24 40.66 16.00L40.66 16.00L40.66 16.00Q39.75 15.76 38.95 15.35L38.95 15.35L38.95 15.35Q38.16 14.94 37.64 14.40L37.64 14.40L37.64 14.40Q37.11 13.86 37.11 13.26L37.11 13.26L37.11 13.26Q37.11 12.98 37.27 12.54L37.27 12.54L37.27 12.54Q37.44 12.11 37.86 11.63L37.86 11.63L37.86 11.63Q37.90 12.05 38.31 12.63L38.31 12.63L38.31 12.63Q38.72 13.20 39.55 13.69L39.55 13.69L39.55 13.69Q40.32 14.14 41.14 14.34L41.14 14.34L41.14 14.34Q41.96 14.55 42.67 14.55L42.67 14.55L42.67 14.55Q43.46 14.55 43.95 14.35L43.95 14.35L43.95 14.35Q44.44 14.15 44.72 13.88L44.72 13.88L44.72 13.88Q45.00 13.61 45.11 13.33L45.11 13.33L45.11 13.33Q45.22 13.05 45.23 12.88L45.23 12.88L45.23 12.88Q45.22 12.60 44.97 12.34L44.97 12.34L44.97 12.34Q44.73 12.08 44.32 11.84L44.32 11.84L44.32 11.84Q43.90 11.59 43.36 11.34L43.36 11.34L43.36 11.34Q42.81 11.09 42.22 10.84L42.22 10.84L42.22 10.84Q41.34 10.44 40.70 10.10L40.70 10.10L40.70 10.10Q40.07 9.76 39.65 9.40L39.65 9.40L39.65 9.40Q39.24 9.04 39.05 8.65L39.05 8.65L39.05 8.65Q38.86 8.26 38.86 7.76L38.86 7.76L38.86 7.76Q38.86 6.97 39.34 6.27L39.34 6.27L39.34 6.27Q39.82 5.57 40.71 5.21L40.71 5.21L40.71 5.21Q41.16 5.01 41.67 4.93L41.67 4.93L41.67 4.93Q42.18 4.84 42.67 4.84L42.67 4.84L42.67 4.84Q43.60 4.84 44.48 5.10L44.48 5.10L44.48 5.10Q45.36 5.35 46.24 5.74ZM46.75 14.94L46.75 14.94L46.75 14.94Q46.75 14.45 46.84 13.78L46.84 13.78L46.84 13.78Q46.94 13.12 47.13 12.36L47.13 12.36L47.13 12.36Q47.32 11.61 47.58 10.78L47.58 10.78L47.58 10.78Q47.84 9.95 48.16 9.13L48.16 9.13L48.16 9.13Q48.44 8.39 48.81 7.63L48.81 7.63L48.81 7.63Q49.18 6.87 49.62 6.15L49.62 6.15L49.62 6.15Q50.05 5.42 50.52 4.76L50.52 4.76L50.52 4.76Q50.99 4.10 51.46 3.56L51.46 3.56L51.46 3.56Q51.69 3.56 51.95 3.61L51.95 3.61L51.95 3.61Q52.21 3.67 52.45 3.76L52.45 3.76L52.45 3.76Q52.70 3.85 52.90 3.98L52.90 3.98L52.90 3.98Q53.10 4.10 53.23 4.23L53.23 4.23L53.23 4.23Q52.18 5.31 51.34 6.40L51.34 6.40L51.34 6.40Q50.50 7.50 50.01 8.47L50.01 8.47L50.01 8.47Q49.74 9.00 49.52 9.46L49.52 9.46L49.52 9.46Q49.31 9.93 49.13 10.38L49.13 10.38L49.13 10.38Q48.94 10.84 48.80 11.29L48.80 11.29L48.80 11.29Q48.65 11.75 48.52 12.25L48.52 12.25L48.52 12.25Q51.21 8.82 52.51 8.82L52.51 8.82L52.51 8.82Q52.88 8.82 53.30 9.06L53.30 9.06L53.30 9.06Q53.72 9.30 54.04 9.70L54.04 9.70L54.04 9.70Q53.61 10.18 53.14 10.85L53.14 10.85L53.14 10.85Q52.68 11.52 52.30 12.20L52.30 12.20L52.30 12.20Q51.91 12.88 51.67 13.46L51.67 13.46L51.67 13.46Q51.42 14.04 51.42 14.32L51.42 14.32L51.42 14.32Q51.42 14.46 51.46 14.51L51.46 14.51L51.46 14.51Q51.51 14.56 51.65 14.56L51.65 14.56L51.65 14.56Q51.86 14.56 51.98 14.50L51.98 14.50L51.98 14.50Q52.11 14.45 52.14 14.45L52.14 14.45L52.14 14.45Q52.21 14.56 52.22 14.60L52.22 14.60L52.22 14.60Q52.23 14.64 52.23 14.67L52.23 14.67L52.23 14.67Q52.23 14.73 52.07 14.83L52.07 14.83L52.07 14.83Q51.90 14.94 51.67 15.04L51.67 15.04L51.67 15.04Q51.44 15.15 51.21 15.23L51.21 15.23L51.21 15.23Q50.99 15.32 50.88 15.32L50.88 15.32L50.88 15.32Q50.74 15.32 50.60 15.24L50.60 15.24L50.60 15.24Q50.46 15.16 50.35 15.04L50.35 15.04L50.35 15.04Q50.25 14.91 50.18 14.76L50.18 14.76L50.18 14.76Q50.12 14.60 50.12 14.43L50.12 14.43L50.12 14.43Q50.12 14.22 50.24 13.81L50.24 13.81L50.24 13.81Q50.36 13.40 50.57 12.85L50.57 12.85L50.57 12.85Q50.78 12.29 51.07 11.63L51.07 11.63L51.07 11.63Q51.37 10.98 51.70 10.29L51.70 10.29L51.70 10.29Q51.70 10.23 51.65 10.23L51.65 10.23L51.65 10.23Q51.60 10.23 51.43 10.35L51.43 10.35L51.43 10.35Q51.25 10.46 51.10 10.57L51.10 10.57L51.10 10.57Q50.60 10.95 50.08 11.50L50.08 11.50L50.08 11.50Q49.57 12.05 49.09 12.71L49.09 12.71L49.09 12.71Q48.61 13.37 48.18 14.11L48.18 14.11L48.18 14.11Q47.75 14.84 47.45 15.58L47.45 15.58L47.45 15.58Q47.40 15.68 47.32 15.76L47.32 15.76L47.32 15.76Q47.24 15.85 47.18 15.85L47.18 15.85L47.18 15.85Q47.14 15.85 47.06 15.75L47.06 15.75L47.06 15.75Q46.98 15.65 46.92 15.51L46.92 15.51L46.92 15.51Q46.86 15.36 46.80 15.20L46.80 15.20L46.80 15.20Q46.75 15.05 46.75 14.94ZM54.01 14.24L54.01 14.24L54.01 14.24Q54.01 14.11 54.03 13.92L54.03 13.92L54.03 13.92Q54.05 13.73 54.11 13.42L54.11 13.42L54.11 13.42Q54.17 13.10 54.26 12.66L54.26 12.66L54.26 12.66Q54.35 12.21 54.49 11.58L54.49 11.58L54.49 11.58Q54.52 11.44 54.61 11.13L54.61 11.13L54.61 11.13Q54.71 10.82 54.87 10.48L54.87 10.48L54.87 10.48Q55.03 10.14 55.26 9.81L55.26 9.81L55.26 9.81Q55.50 9.49 55.82 9.34L55.82 9.34L55.82 9.34Q56.06 9.39 56.45 9.63L56.45 9.63L56.45 9.63Q56.84 9.86 57.12 10.26L57.12 10.26L57.12 10.26Q56.80 10.63 56.58 10.99L56.58 10.99L56.58 10.99Q56.36 11.35 56.19 11.75L56.19 11.75L56.19 11.75Q56.01 12.14 55.87 12.56L55.87 12.56L55.87 12.56Q55.72 12.98 55.54 13.44L55.54 13.44L55.54 13.44Q55.38 13.83 55.26 14.25L55.26 14.25L55.26 14.25Q55.13 14.66 55.12 14.97L55.12 14.97L55.12 14.97Q55.12 15.22 55.11 15.32L55.11 15.32L55.11 15.32Q55.10 15.43 55.03 15.43L55.03 15.43L55.03 15.43Q54.98 15.43 54.81 15.36L54.81 15.36L54.81 15.36Q54.64 15.29 54.47 15.14L54.47 15.14L54.47 15.14Q54.29 14.99 54.15 14.77L54.15 14.77L54.15 14.77Q54.01 14.55 54.01 14.24ZM56.69 8.16L56.69 8.16L56.69 8.16Q56.69 8.08 56.73 7.91L56.73 7.91L56.73 7.91Q56.66 7.84 56.61 7.70L56.61 7.70L56.61 7.70Q56.56 7.56 56.56 7.45L56.56 7.45L56.56 7.45Q56.56 7.32 56.59 7.11L56.59 7.11L56.59 7.11Q56.63 6.89 56.69 6.64L56.69 6.64L56.69 6.64Q56.74 6.38 56.83 6.11L56.83 6.11L56.83 6.11Q56.91 5.84 56.99 5.61L56.99 5.61L56.99 5.61Q57.16 5.61 57.41 5.71L57.41 5.71L57.41 5.71Q57.65 5.80 57.90 5.94L57.90 5.94L57.90 5.94Q58.16 6.09 58.37 6.27L58.37 6.27L58.37 6.27Q58.58 6.44 58.69 6.59L58.69 6.59L58.69 6.59Q58.53 6.75 58.28 7.02L58.28 7.02L58.28 7.02Q58.03 7.29 57.79 7.59L57.79 7.59L57.79 7.59Q57.55 7.90 57.36 8.16L57.36 8.16L57.36 8.16Q57.16 8.43 57.11 8.54L57.11 8.54L57.11 8.54Q56.94 8.51 56.81 8.39L56.81 8.39L56.81 8.39Q56.69 8.27 56.69 8.16ZM56.28 19.81L56.28 19.81L56.28 19.81Q56.08 19.75 56.06 19.39L56.06 19.39L56.06 19.39Q56.00 19.21 55.98 18.96L55.98 18.96L55.98 18.96Q55.96 18.70 55.96 18.38L55.96 18.38L55.96 18.38Q55.96 18.09 56.06 17.58L56.06 17.58L56.06 17.58Q56.15 17.07 56.33 16.42L56.33 16.42L56.33 16.42Q56.50 15.78 56.76 15.03L56.76 15.03L56.76 15.03Q57.01 14.28 57.32 13.51L57.32 13.51L57.32 13.51Q57.69 12.54 57.97 11.84L57.97 11.84L57.97 11.84Q58.25 11.13 58.44 10.61L58.44 10.61L58.44 10.61Q58.63 10.09 58.75 9.76L58.75 9.76L58.75 9.76Q58.87 9.42 58.94 9.18L58.94 9.18L58.94 9.18Q59.00 9.02 59.11 8.78L59.11 8.78L59.11 8.78Q59.22 8.54 59.37 8.29L59.37 8.29L59.37 8.29Q59.51 8.05 59.67 7.83L59.67 7.83L59.67 7.83Q59.82 7.62 59.95 7.50L59.95 7.50L59.95 7.50Q60.44 7.57 60.87 7.76L60.87 7.76L60.87 7.76Q61.31 7.94 61.40 8.11L61.40 8.11L61.40 8.11Q61.21 8.29 60.96 8.67L60.96 8.67L60.96 8.67Q60.70 9.06 60.47 9.51L60.47 9.51L60.47 9.51Q60.23 9.97 60.03 10.44L60.03 10.44L60.03 10.44Q59.84 10.92 59.74 11.28L59.74 11.28L59.74 11.28Q59.88 11.05 60.10 10.77L60.10 10.77L60.10 10.77Q60.33 10.49 60.79 10.00L60.79 10.00L60.79 10.00Q61.31 9.46 61.76 9.18L61.76 9.18L61.76 9.18Q62.22 8.89 62.55 8.89L62.55 8.89L62.55 8.89Q63.08 8.89 63.43 9.18L63.43 9.18L63.43 9.18Q63.77 9.48 63.77 9.94L63.77 9.94L63.77 9.94Q63.77 10.95 63.43 11.94L63.43 11.94L63.43 11.94Q63.10 12.92 62.47 13.72L62.47 13.72L62.47 13.72Q62.23 14.03 61.91 14.31L61.91 14.31L61.91 14.31Q61.59 14.59 61.24 14.80L61.24 14.80L61.24 14.80Q60.89 15.02 60.55 15.15L60.55 15.15L60.55 15.15Q60.21 15.27 59.95 15.27L59.95 15.27L59.95 15.27Q59.70 15.27 59.51 15.17L59.51 15.17L59.51 15.17Q59.32 15.06 59.25 14.91L59.25 14.91L59.25 14.91Q59.79 14.59 60.31 14.01L60.31 14.01L60.31 14.01Q60.83 13.44 61.27 12.69L61.27 12.69L61.27 12.69Q61.71 11.94 62.04 11.07L62.04 11.07L62.04 11.07Q62.37 10.21 62.54 9.31L62.54 9.31L62.54 9.31Q62.01 9.59 61.58 9.92L61.58 9.92L61.58 9.92Q61.15 10.25 60.73 10.78L60.73 10.78L60.73 10.78Q60.23 11.40 59.93 11.77L59.93 11.77L59.93 11.77Q59.64 12.15 59.45 12.42L59.45 12.42L59.45 12.42Q59.26 12.68 59.14 12.91L59.14 12.91L59.14 12.91Q59.02 13.15 58.88 13.48L58.88 13.48L58.88 13.48Q58.69 13.93 58.43 14.67L58.43 14.67L58.43 14.67Q58.17 15.40 57.90 16.31L57.90 16.31L57.90 16.31Q57.62 17.22 57.35 18.25L57.35 18.25L57.35 18.25Q57.08 19.28 56.83 20.30L56.83 20.30L56.83 20.30Q56.67 20.27 56.56 20.08L56.56 20.08L56.56 20.08Q56.45 19.95 56.40 19.89L56.40 19.89L56.40 19.89Q56.35 19.84 56.28 19.81Z"></path></g><!----><!----><g data-v-423bf9ae="" id="7e5c5a62-cfbe-4563-a6e2-2d3aba063967" fill="#000000" transform="matrix(5.917159562968884,0,0,5.917159562968884,-4.142001712814363,110.5739650052325)"><path d="M7.81 9.52C7.39 9.11 6.79 8.86 6.01 8.75C6.33 8.67 6.61 8.55 6.86 8.40C7.11 8.25 7.34 8.08 7.50 7.87C7.67 7.66 7.81 7.43 7.90 7.20C7.98 6.96 8.04 6.71 8.04 6.44C8.04 6.05 7.95 5.68 7.83 5.38C7.70 5.07 7.49 4.80 7.22 4.58C6.96 4.37 6.62 4.20 6.20 4.09C5.78 3.98 5.29 3.92 4.73 3.92L1.89 3.92L0.70 3.92L0.70 4.19C0.70 4.34 0.80 4.42 0.98 4.44L1.12 4.44C1.19 4.44 1.29 4.45 1.43 4.45C1.57 4.45 1.72 4.47 1.89 4.47L1.89 13.26C1.72 13.26 1.57 13.27 1.43 13.27C1.29 13.27 1.19 13.29 1.12 13.29L0.98 13.29C0.80 13.30 0.71 13.38 0.71 13.54L0.71 13.82L1.89 13.82L5.10 13.82C5.63 13.82 6.09 13.76 6.51 13.64C6.93 13.51 7.28 13.34 7.56 13.10C7.84 12.87 8.06 12.59 8.22 12.25C8.37 11.91 8.44 11.54 8.44 11.12C8.44 10.46 8.23 9.93 7.81 9.52ZM2.60 4.48L4.73 4.48C5.61 4.48 6.27 4.66 6.69 5.00C7.11 5.35 7.32 5.84 7.32 6.51C7.32 6.76 7.28 7.03 7.18 7.27C7.08 7.50 6.93 7.71 6.72 7.91C6.51 8.11 6.24 8.26 5.92 8.37C5.60 8.48 5.21 8.55 4.75 8.55L2.60 8.55ZM7.06 12.68C6.61 13.06 5.95 13.24 5.08 13.24L2.60 13.24L2.60 9.07L5.10 9.07C5.52 9.07 5.88 9.11 6.20 9.21C6.52 9.31 6.80 9.45 7.03 9.62C7.25 9.80 7.42 10.00 7.55 10.25C7.66 10.50 7.73 10.79 7.73 11.10C7.73 11.79 7.50 12.31 7.06 12.68ZM24.63 13.29L24.53 13.29L24.35 13.29C24.26 13.29 24.18 13.27 24.09 13.27L21.13 9.53C21.04 9.42 20.93 9.32 20.82 9.25C21.25 9.21 21.64 9.11 21.99 8.96C22.34 8.81 22.62 8.61 22.88 8.37C23.11 8.13 23.31 7.85 23.44 7.55C23.56 7.24 23.63 6.89 23.63 6.51C23.63 5.66 23.35 5.03 22.79 4.58C22.23 4.14 21.38 3.92 20.23 3.92L17.82 3.92L16.65 3.92L16.65 4.19C16.65 4.34 16.73 4.42 16.91 4.44L17.05 4.44C17.12 4.44 17.22 4.45 17.36 4.45C17.50 4.45 17.65 4.47 17.82 4.47L17.82 13.26C17.65 13.26 17.50 13.27 17.36 13.27C17.22 13.27 17.12 13.29 17.05 13.29L16.91 13.29C16.73 13.30 16.63 13.38 16.63 13.54L16.63 13.82L17.82 13.82L18.54 13.82L19.71 13.82L19.71 13.54C19.71 13.38 19.61 13.30 19.43 13.29L19.29 13.29C19.22 13.29 19.12 13.27 18.98 13.27C18.84 13.27 18.70 13.26 18.54 13.26L18.54 9.34L19.71 9.34C19.91 9.34 20.05 9.35 20.13 9.39C20.22 9.44 20.30 9.52 20.38 9.62L23.56 13.64C23.62 13.71 23.66 13.75 23.72 13.78C23.77 13.80 23.84 13.82 23.91 13.82L23.98 13.82L24.53 13.82L24.89 13.82L24.89 13.54C24.89 13.38 24.81 13.30 24.63 13.29ZM20.13 8.81L18.54 8.81L18.54 4.48L20.23 4.48C21.11 4.48 21.78 4.66 22.25 5.00C22.71 5.33 22.93 5.87 22.93 6.57C22.93 6.92 22.88 7.21 22.75 7.49C22.62 7.77 22.43 7.99 22.19 8.19C21.95 8.39 21.66 8.55 21.31 8.65C20.96 8.75 20.57 8.81 20.13 8.81ZM35.91 4.44C36.09 4.42 36.18 4.34 36.18 4.19L36.18 3.91L35 3.91L34.29 3.91L33.10 3.91L33.10 4.19C33.10 4.34 33.19 4.42 33.38 4.44L33.52 4.44C33.59 4.44 33.68 4.45 33.82 4.45C33.96 4.45 34.12 4.47 34.29 4.47L34.29 13.26C34.12 13.26 33.96 13.27 33.82 13.27C33.68 13.27 33.59 13.29 33.52 13.29L33.38 13.29C33.19 13.30 33.10 13.38 33.10 13.54L33.10 13.82L34.29 13.82L35 13.82L36.18 13.82L36.18 13.54C36.18 13.38 36.09 13.30 35.91 13.29L35.77 13.29C35.70 13.29 35.60 13.27 35.46 13.27C35.32 13.27 35.17 13.26 35 13.26L35 4.47C35.17 4.47 35.32 4.45 35.46 4.45C35.60 4.45 35.70 4.44 35.77 4.44ZM53.35 3.92L52.72 3.92L51.51 3.92L51.51 4.19C51.51 4.34 51.60 4.42 51.79 4.44L51.93 4.44C52.00 4.44 52.11 4.45 52.25 4.45C52.39 4.45 52.56 4.47 52.72 4.47L52.72 12.22C52.72 12.35 52.72 12.49 52.74 12.63L46.33 4.05C46.28 3.99 46.26 3.95 46.21 3.93C46.17 3.92 46.13 3.91 46.06 3.91L45.71 3.91L44.52 3.91L44.52 4.19C44.52 4.34 44.62 4.42 44.80 4.44L44.94 4.44C45.01 4.44 45.11 4.45 45.25 4.45C45.39 4.45 45.54 4.47 45.71 4.47L45.71 13.26C45.54 13.26 45.39 13.27 45.25 13.27C45.11 13.27 45.01 13.29 44.94 13.29L44.80 13.29C44.62 13.30 44.52 13.38 44.52 13.54L44.52 13.82L45.71 13.82L46.33 13.82L47.54 13.82L47.54 13.54C47.54 13.38 47.45 13.30 47.26 13.29L47.12 13.29C47.05 13.29 46.93 13.27 46.79 13.27C46.65 13.27 46.49 13.26 46.33 13.26L46.33 5.49C46.33 5.36 46.33 5.22 46.31 5.08L52.75 13.68C52.82 13.78 52.89 13.82 53.00 13.82L53.35 13.82L53.35 4.47C53.52 4.47 53.66 4.45 53.80 4.45C53.94 4.45 54.05 4.44 54.12 4.44L54.25 4.44C54.43 4.42 54.53 4.34 54.53 4.19L54.53 3.92ZM68.21 9.32L68.21 9.72C68.21 9.76 68.24 9.80 68.26 9.83C68.29 9.86 68.33 9.87 68.39 9.87L70.29 9.87L70.29 12.54C70.07 12.67 69.85 12.78 69.64 12.88C69.43 12.98 69.19 13.08 68.95 13.15C68.71 13.22 68.45 13.27 68.17 13.30C67.89 13.33 67.58 13.34 67.24 13.34C66.63 13.34 66.07 13.24 65.56 13.03C65.06 12.82 64.62 12.53 64.26 12.15C63.90 11.77 63.62 11.30 63.42 10.74C63.22 10.18 63.11 9.56 63.11 8.86C63.11 8.18 63.22 7.56 63.42 7.01C63.62 6.47 63.90 5.99 64.26 5.61C64.62 5.24 65.07 4.94 65.59 4.73C66.11 4.52 66.68 4.42 67.33 4.42C68.50 4.42 69.44 4.58 70.13 4.90C70.17 5.81 70.20 6.31 70.20 6.41C70.21 6.64 70.31 6.75 70.50 6.75L70.84 6.75L70.84 4.51C70.41 4.31 69.85 4.14 69.15 4.00C68.45 3.86 67.86 3.81 67.35 3.81C66.60 3.81 65.91 3.92 65.30 4.16C64.68 4.40 64.16 4.75 63.73 5.18C63.29 5.61 62.97 6.15 62.73 6.78C62.50 7.39 62.38 8.09 62.38 8.86C62.38 9.63 62.50 10.32 62.73 10.95C62.97 11.58 63.29 12.10 63.71 12.54C64.13 12.99 64.65 13.33 65.24 13.57C65.83 13.80 66.47 13.93 67.19 13.93C67.61 13.93 67.98 13.90 68.33 13.86C68.68 13.80 69.01 13.73 69.31 13.65C69.62 13.55 69.90 13.44 70.17 13.30C70.43 13.16 70.69 13.01 70.94 12.84L70.94 9.32ZM85.06 9.91C84.92 9.65 84.73 9.39 84.49 9.21C84.25 9.03 84 8.88 83.71 8.75C83.41 8.62 83.09 8.51 82.78 8.41C82.47 8.32 82.17 8.20 81.87 8.11C81.58 7.99 81.31 7.87 81.07 7.71C80.84 7.56 80.65 7.38 80.51 7.15C80.37 6.93 80.29 6.65 80.29 6.31C80.29 6.06 80.35 5.82 80.44 5.59C80.54 5.35 80.68 5.15 80.86 4.97C81.05 4.79 81.27 4.65 81.55 4.55C81.83 4.45 82.14 4.40 82.50 4.40C83.17 4.40 83.79 4.51 84.35 4.75C84.39 5.54 84.42 5.99 84.42 6.06C84.43 6.29 84.52 6.41 84.71 6.41L85.05 6.41L85.05 4.38C84.17 4.00 83.33 3.81 82.50 3.81C82.04 3.81 81.63 3.88 81.27 4.02C80.91 4.16 80.61 4.34 80.37 4.58C80.14 4.82 79.94 5.08 79.81 5.39C79.69 5.70 79.63 6.02 79.63 6.36C79.63 6.78 79.70 7.14 79.84 7.42C79.98 7.70 80.18 7.92 80.42 8.12C80.65 8.32 80.91 8.46 81.20 8.58C81.49 8.71 81.82 8.82 82.12 8.92C82.43 9.02 82.73 9.11 83.03 9.21C83.33 9.31 83.59 9.45 83.83 9.60C84.07 9.76 84.25 9.94 84.39 10.16C84.53 10.39 84.60 10.68 84.60 11.03C84.60 11.35 84.55 11.66 84.43 11.94C84.32 12.22 84.17 12.46 83.96 12.67C83.75 12.88 83.48 13.05 83.17 13.16C82.87 13.29 82.52 13.33 82.12 13.33C81.34 13.33 80.68 13.20 80.15 12.95C80.14 12.75 80.14 12.54 80.12 12.32C80.11 12.10 80.11 11.91 80.09 11.76C80.08 11.61 80.08 11.52 80.08 11.51C80.07 11.28 79.97 11.17 79.77 11.17L79.44 11.17L79.44 13.02L79.44 13.20L79.44 13.38C80.29 13.75 81.17 13.93 82.10 13.93C82.60 13.93 83.05 13.85 83.44 13.69C83.83 13.54 84.17 13.31 84.43 13.05C84.70 12.78 84.92 12.46 85.06 12.10C85.20 11.73 85.27 11.34 85.27 10.92C85.27 10.51 85.20 10.18 85.06 9.91ZM112.04 3.92L111.97 3.92L111.41 3.92L111.30 3.92L109.90 3.92L109.90 4.19C109.90 4.34 110.00 4.42 110.18 4.44L110.29 4.44C110.35 4.44 110.42 4.45 110.53 4.45C110.64 4.45 110.77 4.47 110.91 4.47L108.32 8.64C108.25 8.75 108.19 8.85 108.15 8.95C108.11 9.04 108.07 9.16 108.02 9.25C107.98 9.16 107.94 9.04 107.90 8.95C107.86 8.85 107.80 8.75 107.73 8.64L105.13 4.47C105.27 4.47 105.39 4.45 105.50 4.45C105.62 4.45 105.70 4.44 105.76 4.44L105.85 4.44C106.04 4.42 106.13 4.34 106.13 4.19L106.13 3.92L104.73 3.92L104.62 3.92L104.06 3.92L103.99 3.92L103.54 3.92L103.54 4.19C103.54 4.34 103.64 4.42 103.82 4.44C104.06 4.45 104.24 4.47 104.34 4.47L107.66 9.73L107.66 13.26C107.49 13.26 107.34 13.27 107.20 13.27C107.06 13.27 106.96 13.29 106.89 13.29L106.76 13.29C106.58 13.30 106.48 13.38 106.48 13.54L106.48 13.82L107.66 13.82L108.37 13.82L109.55 13.82L109.55 13.54C109.55 13.38 109.47 13.30 109.28 13.29L109.14 13.29C109.07 13.29 108.98 13.27 108.84 13.27C108.70 13.27 108.54 13.26 108.37 13.26L108.37 9.73L111.69 4.47C111.80 4.47 111.97 4.45 112.21 4.44C112.39 4.42 112.49 4.34 112.49 4.19L112.49 3.92ZM129.23 8.86C129.23 8.11 129.11 7.41 128.88 6.79C128.66 6.17 128.34 5.64 127.92 5.19C127.50 4.75 127.01 4.40 126.43 4.16C125.86 3.92 125.20 3.79 124.50 3.79C123.80 3.79 123.17 3.92 122.60 4.16C122.02 4.40 121.52 4.75 121.10 5.19C120.68 5.64 120.36 6.17 120.13 6.79C119.91 7.41 119.78 8.11 119.78 8.86C119.78 9.63 119.91 10.33 120.13 10.95C120.36 11.56 120.68 12.10 121.10 12.54C121.52 12.99 122.02 13.33 122.60 13.57C123.17 13.80 123.80 13.93 124.50 13.93C125.20 13.93 125.86 13.80 126.43 13.57C127.01 13.33 127.50 12.99 127.92 12.54C128.34 12.10 128.66 11.56 128.88 10.95C129.11 10.33 129.23 9.63 129.23 8.86ZM128.48 8.86C128.48 9.56 128.39 10.18 128.20 10.72C128.00 11.27 127.74 11.75 127.39 12.12C127.04 12.50 126.62 12.81 126.13 13.01C125.64 13.20 125.10 13.30 124.50 13.30C123.91 13.30 123.38 13.20 122.89 13.01C122.40 12.81 121.98 12.50 121.63 12.12C121.28 11.75 121.00 11.27 120.81 10.72C120.61 10.18 120.53 9.56 120.53 8.86C120.53 8.18 120.61 7.55 120.81 7.00C121.00 6.45 121.28 5.98 121.63 5.60C121.98 5.22 122.40 4.91 122.89 4.72C123.38 4.52 123.91 4.41 124.50 4.41C125.10 4.41 125.64 4.52 126.13 4.72C126.62 4.91 127.04 5.22 127.39 5.60C127.74 5.98 128.00 6.45 128.20 7.00C128.39 7.55 128.48 8.18 128.48 8.86ZM145.47 3.92L144.76 3.92L143.40 3.92L143.40 4.19C143.40 4.34 143.50 4.42 143.68 4.44L143.85 4.44C143.95 4.44 144.09 4.45 144.26 4.45C144.42 4.45 144.59 4.47 144.76 4.47L144.76 10.04C144.76 10.50 144.69 10.92 144.55 11.33C144.41 11.73 144.21 12.08 143.95 12.38C143.68 12.67 143.37 12.89 143.00 13.06C142.62 13.23 142.20 13.31 141.72 13.31C141.25 13.31 140.81 13.23 140.43 13.06C140.06 12.89 139.73 12.66 139.48 12.36C139.22 12.07 139.03 11.72 138.89 11.33C138.75 10.93 138.68 10.50 138.68 10.04L138.68 4.47C138.85 4.47 139.02 4.45 139.19 4.45C139.36 4.45 139.50 4.44 139.59 4.44L139.76 4.44C139.94 4.42 140.04 4.34 140.04 4.19L140.04 3.92L138.68 3.92L137.97 3.92L136.79 3.92L136.79 4.19C136.79 4.34 136.88 4.42 137.06 4.44L137.20 4.44C137.27 4.44 137.37 4.45 137.51 4.45C137.65 4.45 137.80 4.47 137.97 4.47L137.97 10.04C137.97 10.58 138.05 11.09 138.22 11.56C138.39 12.04 138.64 12.46 138.96 12.81C139.29 13.16 139.69 13.44 140.15 13.64C140.62 13.83 141.15 13.93 141.72 13.93C142.30 13.93 142.81 13.83 143.28 13.64C143.74 13.44 144.14 13.16 144.47 12.81C144.79 12.46 145.04 12.04 145.21 11.56C145.38 11.09 145.47 10.58 145.47 10.04L145.47 4.47C145.64 4.47 145.78 4.45 145.92 4.45C146.06 4.45 146.17 4.44 146.24 4.44L146.37 4.44C146.55 4.42 146.65 4.34 146.65 4.19L146.65 3.92ZM172.77 12.21C172.75 12.18 172.70 12.15 172.66 12.15C172.63 12.15 172.62 12.15 172.59 12.17C172.58 12.18 172.55 12.21 172.52 12.22C172.33 12.40 172.12 12.56 171.92 12.70C171.72 12.84 171.51 12.94 171.28 13.03C171.04 13.13 170.79 13.20 170.51 13.24C170.23 13.29 169.92 13.31 169.57 13.31C169.01 13.31 168.46 13.22 167.99 13.01C167.50 12.81 167.09 12.52 166.74 12.14C166.39 11.76 166.10 11.28 165.90 10.74C165.70 10.19 165.61 9.56 165.61 8.86C165.61 8.18 165.70 7.56 165.90 7.01C166.11 6.47 166.39 6.01 166.75 5.61C167.12 5.24 167.55 4.94 168.06 4.73C168.56 4.52 169.11 4.42 169.71 4.42C170.60 4.42 171.43 4.56 172.16 4.89C172.20 5.78 172.24 6.30 172.24 6.41C172.26 6.64 172.34 6.75 172.54 6.75L172.87 6.75L172.87 4.51C171.70 4.03 170.63 3.81 169.71 3.81C168.99 3.81 168.35 3.92 167.75 4.17C167.16 4.42 166.63 4.76 166.21 5.21C165.77 5.66 165.45 6.19 165.21 6.80C164.98 7.42 164.86 8.11 164.86 8.86C164.86 9.63 164.99 10.32 165.21 10.95C165.44 11.58 165.76 12.10 166.17 12.54C166.57 12.99 167.06 13.33 167.64 13.57C168.21 13.80 168.83 13.93 169.51 13.93C169.92 13.93 170.30 13.90 170.65 13.83C170.98 13.76 171.30 13.66 171.60 13.54C171.88 13.41 172.14 13.26 172.38 13.09C172.62 12.91 172.84 12.73 173.05 12.50ZM187.43 11.97C187.24 11.97 187.15 12.08 187.14 12.31C187.14 12.32 187.14 12.38 187.12 12.43C187.11 12.49 187.11 12.59 187.10 12.71C187.08 12.84 187.07 13.01 187.05 13.20L182.97 13.20L182.97 4.47C183.13 4.47 183.27 4.45 183.41 4.45C183.55 4.45 183.67 4.44 183.74 4.44L183.86 4.44C184.04 4.42 184.14 4.34 184.14 4.19L184.14 3.92L182.97 3.92L182.25 3.92L181.06 3.92L181.06 4.19C181.06 4.34 181.16 4.42 181.34 4.44L181.48 4.44C181.55 4.44 181.65 4.45 181.79 4.45C181.93 4.45 182.08 4.47 182.25 4.47L182.25 13.26C182.08 13.26 181.93 13.27 181.79 13.27C181.65 13.27 181.55 13.29 181.48 13.29L181.34 13.29C181.16 13.30 181.06 13.38 181.06 13.54L181.06 13.82L182.25 13.82L187.53 13.82L187.66 13.82L187.78 13.82L187.78 13.55L187.78 12.99L187.78 11.97L187.50 11.97ZM204.92 8.86C204.92 8.11 204.79 7.41 204.57 6.79C204.34 6.17 204.02 5.64 203.60 5.19C203.18 4.75 202.69 4.40 202.12 4.16C201.54 3.92 200.89 3.79 200.19 3.79C199.49 3.79 198.86 3.92 198.28 4.16C197.71 4.40 197.20 4.75 196.78 5.19C196.36 5.64 196.04 6.17 195.82 6.79C195.59 7.41 195.47 8.11 195.47 8.86C195.47 9.63 195.59 10.33 195.82 10.95C196.04 11.56 196.36 12.10 196.78 12.54C197.20 12.99 197.71 13.33 198.28 13.57C198.86 13.80 199.49 13.93 200.19 13.93C200.89 13.93 201.54 13.80 202.12 13.57C202.69 13.33 203.18 12.99 203.60 12.54C204.02 12.10 204.34 11.56 204.57 10.95C204.79 10.33 204.92 9.63 204.92 8.86ZM204.16 8.86C204.16 9.56 204.08 10.18 203.88 10.72C203.69 11.27 203.42 11.75 203.07 12.12C202.72 12.50 202.30 12.81 201.81 13.01C201.32 13.20 200.79 13.30 200.19 13.30C199.60 13.30 199.07 13.20 198.58 13.01C198.09 12.81 197.67 12.50 197.32 12.12C196.97 11.75 196.69 11.27 196.49 10.72C196.29 10.18 196.21 9.56 196.21 8.86C196.21 8.18 196.29 7.55 196.49 7.00C196.69 6.45 196.97 5.98 197.32 5.60C197.67 5.22 198.09 4.91 198.58 4.72C199.07 4.52 199.60 4.41 200.19 4.41C200.79 4.41 201.32 4.52 201.81 4.72C202.30 4.91 202.72 5.22 203.07 5.60C203.42 5.98 203.69 6.45 203.88 7.00C204.08 7.55 204.16 8.18 204.16 8.86ZM218.92 9.91C218.78 9.65 218.58 9.39 218.34 9.21C218.11 9.03 217.85 8.88 217.56 8.75C217.27 8.62 216.94 8.51 216.64 8.41C216.33 8.32 216.02 8.20 215.73 8.11C215.43 7.99 215.17 7.87 214.93 7.71C214.69 7.56 214.51 7.38 214.37 7.15C214.23 6.93 214.14 6.65 214.14 6.31C214.14 6.06 214.20 5.82 214.30 5.59C214.40 5.35 214.54 5.15 214.72 4.97C214.90 4.79 215.12 4.65 215.40 4.55C215.68 4.45 215.99 4.40 216.36 4.40C217.03 4.40 217.64 4.51 218.20 4.75C218.25 5.54 218.27 5.99 218.27 6.06C218.29 6.29 218.37 6.41 218.57 6.41L218.90 6.41L218.90 4.38C218.02 4.00 217.18 3.81 216.36 3.81C215.89 3.81 215.49 3.88 215.12 4.02C214.76 4.16 214.47 4.34 214.23 4.58C213.99 4.82 213.79 5.08 213.67 5.39C213.54 5.70 213.49 6.02 213.49 6.36C213.49 6.78 213.56 7.14 213.70 7.42C213.84 7.70 214.03 7.92 214.27 8.12C214.51 8.32 214.76 8.46 215.05 8.58C215.35 8.71 215.67 8.82 215.98 8.92C216.29 9.02 216.58 9.11 216.89 9.21C217.18 9.31 217.45 9.45 217.69 9.60C217.92 9.76 218.11 9.94 218.25 10.16C218.39 10.39 218.46 10.68 218.46 11.03C218.46 11.35 218.40 11.66 218.29 11.94C218.18 12.22 218.02 12.46 217.81 12.67C217.60 12.88 217.34 13.05 217.03 13.16C216.72 13.29 216.37 13.33 215.98 13.33C215.19 13.33 214.54 13.20 214.00 12.95C213.99 12.75 213.99 12.54 213.98 12.32C213.96 12.10 213.96 11.91 213.95 11.76C213.93 11.61 213.93 11.52 213.93 11.51C213.92 11.28 213.82 11.17 213.63 11.17L213.29 11.17L213.29 13.02L213.29 13.20L213.29 13.38C214.14 13.75 215.03 13.93 215.95 13.93C216.45 13.93 216.90 13.85 217.29 13.69C217.69 13.54 218.02 13.31 218.29 13.05C218.55 12.78 218.78 12.46 218.92 12.10C219.06 11.73 219.13 11.34 219.13 10.92C219.13 10.51 219.06 10.18 218.92 9.91ZM228.58 3.92L227.39 3.92L227.39 4.19C227.39 4.34 227.49 4.42 227.67 4.44L227.81 4.44C227.88 4.44 227.98 4.45 228.12 4.45C228.26 4.45 228.41 4.47 228.58 4.47L228.58 13.26C228.41 13.26 228.26 13.27 228.12 13.27C227.98 13.27 227.88 13.29 227.81 13.29L227.67 13.29C227.49 13.30 227.40 13.38 227.40 13.54L227.40 13.82L228.58 13.82L234.51 13.82L234.51 13.22L234.51 11.76L234.16 11.76C233.97 11.76 233.88 11.89 233.87 12.11C233.87 12.14 233.86 12.19 233.86 12.29C233.86 12.39 233.86 12.53 233.84 12.74C233.83 12.95 233.81 13.09 233.81 13.22L229.29 13.22L229.29 9.09L233.24 9.09L233.24 8.51L229.29 8.51L229.29 4.51L233.81 4.51C233.84 5.12 233.87 5.50 233.87 5.63C233.88 5.85 233.97 5.96 234.16 5.96L234.51 5.96L234.51 4.51L234.51 3.92ZM251.09 13.29L250.99 13.29L250.81 13.29C250.73 13.29 250.64 13.27 250.56 13.27L247.59 9.53C247.51 9.42 247.39 9.32 247.28 9.25C247.72 9.21 248.11 9.11 248.46 8.96C248.81 8.81 249.09 8.61 249.34 8.37C249.58 8.13 249.77 7.85 249.90 7.55C250.03 7.24 250.10 6.89 250.10 6.51C250.10 5.66 249.82 5.03 249.26 4.58C248.70 4.14 247.84 3.92 246.69 3.92L244.29 3.92L243.11 3.92L243.11 4.19C243.11 4.34 243.19 4.42 243.38 4.44L243.52 4.44C243.59 4.44 243.68 4.45 243.82 4.45C243.96 4.45 244.12 4.47 244.29 4.47L244.29 13.26C244.12 13.26 243.96 13.27 243.82 13.27C243.68 13.27 243.59 13.29 243.52 13.29L243.38 13.29C243.19 13.30 243.10 13.38 243.10 13.54L243.10 13.82L244.29 13.82L245 13.82L246.18 13.82L246.18 13.54C246.18 13.38 246.08 13.30 245.90 13.29L245.76 13.29C245.69 13.29 245.59 13.27 245.45 13.27C245.31 13.27 245.17 13.26 245 13.26L245 9.34L246.18 9.34C246.37 9.34 246.51 9.35 246.60 9.39C246.68 9.44 246.76 9.52 246.85 9.62L250.03 13.64C250.08 13.71 250.12 13.75 250.18 13.78C250.24 13.80 250.31 13.82 250.38 13.82L250.45 13.82L250.99 13.82L251.36 13.82L251.36 13.54C251.36 13.38 251.27 13.30 251.09 13.29ZM246.60 8.81L245 8.81L245 4.48L246.69 4.48C247.58 4.48 248.25 4.66 248.71 5.00C249.17 5.33 249.40 5.87 249.40 6.57C249.40 6.92 249.34 7.21 249.21 7.49C249.09 7.77 248.89 7.99 248.65 8.19C248.42 8.39 248.12 8.55 247.77 8.65C247.42 8.75 247.03 8.81 246.60 8.81Z"></path></g></svg>