<svg data-v-fde0c5aa="" xmlns="http://www.w3.org/2000/svg" viewBox="0 0 300 300" class="iconLeftSlogan"><!----><defs data-v-fde0c5aa=""><!----></defs><rect data-v-fde0c5aa="" fill="transparent" x="0" y="0" width="200px" height="100px" class="logo-background-square"></rect><defs data-v-fde0c5aa=""><!----></defs><g data-v-fde0c5aa="" id="f94840f8-0dc1-47f0-b330-d7eb0a700fe3" fill="#000000" transform="matrix(2.4684239383325566,0,0,2.4684239383325566,115.35036068596912,115.80944669908082)"><path d="M6.54 5.49L6.54 4.20L1.16 4.20L1.16 14L6.54 14L6.54 12.71L2.49 12.71L2.49 9.65L5.61 9.65L5.61 8.37L2.49 8.37L2.49 5.49ZM13.36 7L13.36 8.12C12.81 7.39 12.00 6.90 10.96 6.90C9.02 6.90 7.69 8.48 7.69 10.50C7.69 12.52 9.02 14.10 10.96 14.10C12.00 14.10 12.81 13.61 13.36 12.88L13.36 14L14.67 14L14.67 7ZM11.19 12.82C9.93 12.82 9.04 11.79 9.04 10.50C9.04 9.23 9.93 8.19 11.19 8.19C12.45 8.19 13.36 9.27 13.36 10.50C13.36 11.73 12.45 12.82 11.19 12.82ZM18.76 14.11C20.22 14.11 21.18 13.24 21.20 12.10C21.20 9.66 17.84 10.12 17.85 8.86C17.85 8.44 18.23 8.16 18.76 8.16C19.35 8.16 19.91 8.57 20.22 8.85L20.99 7.88C20.55 7.39 19.73 6.87 18.75 6.89C17.37 6.89 16.49 7.77 16.49 8.83C16.48 11.21 19.82 10.71 19.82 12.07C19.82 12.53 19.39 12.84 18.80 12.84C18.14 12.84 17.54 12.45 17.11 12.03L16.28 13.01C16.86 13.65 17.88 14.11 18.76 14.11ZM27.55 7L25.42 12.46L23.28 7L21.85 7L24.77 13.94L23.53 16.80L24.88 16.80L28.98 7ZM35.50 5.49L35.50 4.20L30.25 4.20L30.25 14L31.58 14L31.58 10.01L34.37 10.01L34.37 8.72L31.58 8.72L31.58 5.49ZM40.73 7L40.73 10.82C40.73 12.21 40.00 12.94 39.02 12.94C38.02 12.94 37.31 12.21 37.31 10.82L37.31 7L35.99 7L35.99 11.02C35.99 13.10 37.24 14.14 38.61 14.14C39.58 14.14 40.32 13.68 40.73 13.02L40.73 14L42.04 14L42.04 7ZM47.54 6.86C46.58 6.86 45.84 7.32 45.43 7.98L45.43 7L44.11 7L44.11 14L45.43 14L45.43 10.18C45.43 8.79 46.16 8.06 47.14 8.06C48.13 8.06 48.85 8.79 48.85 10.18L48.85 14L50.16 14L50.16 9.98C50.16 7.90 48.92 6.86 47.54 6.86ZM57.29 2.80L57.29 8.12C56.74 7.39 55.93 6.90 54.89 6.90C52.95 6.90 51.62 8.48 51.62 10.50C51.62 12.52 52.95 14.10 54.89 14.10C55.93 14.10 56.74 13.61 57.29 12.88L57.29 14L58.60 14L58.60 2.80ZM55.12 12.82C53.86 12.82 52.98 11.79 52.98 10.50C52.98 9.23 53.86 8.19 55.12 8.19C56.38 8.19 57.29 9.27 57.29 10.50C57.29 11.73 56.38 12.82 55.12 12.82Z"></path></g><defs data-v-fde0c5aa=""><linearGradient data-v-fde0c5aa="" gradientTransform="rotate(25)" id="ca21046c-bb0e-46ca-99a6-a0db7c1ae58b" x1="0%" y1="0%" x2="100%" y2="0%"><stop data-v-fde0c5aa="" offset="0%" stop-color="#E90DCA" stop-opacity="1"></stop><stop data-v-fde0c5aa="" offset="100%" stop-color="#1536F1" stop-opacity="1"></stop></linearGradient></defs><g data-v-fde0c5aa="" id="25e50bb3-c4a8-4d61-9c2f-1927b325bdbd" stroke="none" fill="url(#ca21046c-bb0e-46ca-99a6-a0db7c1ae58b)" transform="matrix(0.1304274647440847,0,0,0.1304274647440847,45.608380983995644,98.22029649659838)"><style>.st2{fill:none;stroke:#000;stroke-width:.1;stroke-miterlimit:10}</style><path d="M223.6 400.1l-40.7-7.9.5-4.8 54.2 10.3c5.9 1.8 12.2-1 15.1-6.5 3.8-7.5-.5-16.6-8.7-18.4L166.6 357c-9.8-4.8-60.6 15-78.5 22.2-3.8 1.5-6.2 5.1-6.2 9.2v30.7c0 6.9 6.8 11.7 13.3 9.3l35-12.7 56.4 17.3c7.2 3.8 15.3 5.5 23.3 4.6l114.5-31.3c4.4-1.2 7.6-5.2 7.6-9.8 0-6.7-6.4-11.6-12.8-9.8l-69.7 15.7-25.9-2.3z"></path><path d="M207 647c-66.8 0-129.6-26-176.8-73.2S-43 463.8-43 397s26-129.6 73.2-176.8S140.2 147 207 147s129.6 26 176.8 73.2S457 330.2 457 397s-26 129.6-73.2 176.8S273.8 647 207 647zm0-484C78 163-27 268-27 397S78 631 207 631s234-105 234-234-105-234-234-234z"></path></g><defs data-v-fde0c5aa=""><!----></defs><g data-v-fde0c5aa="" id="5ce3aad9-30e3-40a1-8e55-057600f5cee6" fill="#000000" transform="matrix(0.5889112429927883,0,0,0.5889112429927883,117.90749853691868,165.04699280281417)"><path d="M6.34 9.32L6.34 9.72C6.34 9.76 6.37 9.80 6.40 9.83C6.43 9.86 6.47 9.87 6.52 9.87L8.43 9.87L8.43 12.54C8.20 12.67 7.98 12.78 7.77 12.88C7.56 12.98 7.32 13.08 7.08 13.15C6.85 13.22 6.58 13.27 6.30 13.30C6.02 13.33 5.71 13.34 5.38 13.34C4.76 13.34 4.20 13.24 3.70 13.03C3.19 12.82 2.76 12.53 2.39 12.15C2.03 11.77 1.75 11.30 1.55 10.74C1.36 10.18 1.25 9.56 1.25 8.86C1.25 8.18 1.36 7.56 1.55 7.01C1.75 6.47 2.03 5.99 2.39 5.61C2.76 5.24 3.21 4.94 3.72 4.73C4.24 4.52 4.82 4.42 5.46 4.42C6.64 4.42 7.57 4.58 8.26 4.90C8.30 5.81 8.33 6.31 8.33 6.41C8.34 6.64 8.44 6.75 8.64 6.75L8.97 6.75L8.97 4.51C8.54 4.31 7.98 4.14 7.28 4.00C6.58 3.86 5.99 3.81 5.49 3.81C4.73 3.81 4.05 3.92 3.43 4.16C2.81 4.40 2.30 4.75 1.86 5.18C1.43 5.61 1.11 6.15 0.87 6.78C0.63 7.39 0.52 8.09 0.52 8.86C0.52 9.63 0.63 10.32 0.87 10.95C1.11 11.58 1.43 12.10 1.85 12.54C2.27 12.99 2.79 13.33 3.37 13.57C3.96 13.80 4.61 13.93 5.32 13.93C5.74 13.93 6.12 13.90 6.47 13.86C6.82 13.80 7.14 13.73 7.45 13.65C7.76 13.55 8.04 13.44 8.30 13.30C8.57 13.16 8.82 13.01 9.07 12.84L9.07 9.32ZM20.29 4.44C20.47 4.42 20.55 4.34 20.55 4.19L20.55 3.91L19.38 3.91L18.66 3.91L17.47 3.91L17.47 4.19C17.47 4.34 17.57 4.42 17.75 4.44L17.89 4.44C17.96 4.44 18.06 4.45 18.20 4.45C18.34 4.45 18.49 4.47 18.66 4.47L18.66 13.26C18.49 13.26 18.34 13.27 18.20 13.27C18.06 13.27 17.96 13.29 17.89 13.29L17.75 13.29C17.57 13.30 17.47 13.38 17.47 13.54L17.47 13.82L18.66 13.82L19.38 13.82L20.55 13.82L20.55 13.54C20.55 13.38 20.47 13.30 20.29 13.29L20.15 13.29C20.08 13.29 19.98 13.27 19.84 13.27C19.70 13.27 19.54 13.26 19.38 13.26L19.38 4.47C19.54 4.47 19.70 4.45 19.84 4.45C19.98 4.45 20.08 4.44 20.15 4.44ZM37.94 3.92L37.38 3.92L37.35 3.92L35.88 3.92L35.88 4.19C35.88 4.34 35.97 4.42 36.15 4.44L36.27 4.44C36.33 4.44 36.41 4.45 36.54 4.45C36.67 4.45 36.81 4.47 36.96 4.47L33.75 12.32C33.67 12.53 33.60 12.75 33.54 13.01C33.49 12.77 33.42 12.53 33.33 12.32L30.10 4.47C30.25 4.47 30.41 4.45 30.53 4.45C30.66 4.45 30.74 4.44 30.80 4.44L30.91 4.44C31.09 4.42 31.19 4.34 31.19 4.19L31.19 3.92L29.69 3.92L29.13 3.92L28.53 3.92L28.53 4.19C28.53 4.34 28.63 4.42 28.81 4.44L28.91 4.44C28.95 4.44 29.02 4.45 29.09 4.45C29.16 4.45 29.26 4.47 29.36 4.47L33.22 13.82L33.85 13.82L37.72 4.47C37.81 4.47 37.91 4.45 37.98 4.45C38.05 4.45 38.12 4.44 38.16 4.44L38.25 4.44C38.43 4.42 38.53 4.34 38.53 4.19L38.53 3.92ZM47.77 3.92L46.58 3.92L46.58 4.19C46.58 4.34 46.68 4.42 46.86 4.44L47.00 4.44C47.07 4.44 47.17 4.45 47.31 4.45C47.45 4.45 47.60 4.47 47.77 4.47L47.77 13.26C47.60 13.26 47.45 13.27 47.31 13.27C47.17 13.27 47.07 13.29 47.00 13.29L46.86 13.29C46.68 13.30 46.59 13.38 46.59 13.54L46.59 13.82L47.77 13.82L53.70 13.82L53.70 13.22L53.70 11.76L53.35 11.76C53.16 11.76 53.07 11.89 53.06 12.11C53.06 12.14 53.05 12.19 53.05 12.29C53.05 12.39 53.05 12.53 53.03 12.74C53.02 12.95 53.00 13.09 53.00 13.22L48.48 13.22L48.48 9.09L52.43 9.09L52.43 8.51L48.48 8.51L48.48 4.51L53.00 4.51C53.03 5.12 53.06 5.50 53.06 5.63C53.07 5.85 53.16 5.96 53.35 5.96L53.70 5.96L53.70 4.51L53.70 3.92ZM75.47 4.44C75.66 4.42 75.74 4.34 75.74 4.19L75.74 3.91L74.56 3.91L73.85 3.91L72.66 3.91L72.66 4.19C72.66 4.34 72.76 4.42 72.94 4.44L73.08 4.44C73.15 4.44 73.25 4.45 73.39 4.45C73.53 4.45 73.68 4.47 73.85 4.47L73.85 13.26C73.68 13.26 73.53 13.27 73.39 13.27C73.25 13.27 73.15 13.29 73.08 13.29L72.94 13.29C72.76 13.30 72.66 13.38 72.66 13.54L72.66 13.82L73.85 13.82L74.56 13.82L75.74 13.82L75.74 13.54C75.74 13.38 75.66 13.30 75.47 13.29L75.33 13.29C75.26 13.29 75.17 13.27 75.03 13.27C74.89 13.27 74.73 13.26 74.56 13.26L74.56 4.47C74.73 4.47 74.89 4.45 75.03 4.45C75.17 4.45 75.26 4.44 75.33 4.44ZM92.92 3.92L92.29 3.92L91.07 3.92L91.07 4.19C91.07 4.34 91.17 4.42 91.35 4.44L91.49 4.44C91.56 4.44 91.67 4.45 91.81 4.45C91.95 4.45 92.12 4.47 92.29 4.47L92.29 12.22C92.29 12.35 92.29 12.49 92.30 12.63L85.89 4.05C85.85 3.99 85.82 3.95 85.78 3.93C85.74 3.92 85.69 3.91 85.62 3.91L85.27 3.91L84.08 3.91L84.08 4.19C84.08 4.34 84.18 4.42 84.36 4.44L84.50 4.44C84.57 4.44 84.67 4.45 84.81 4.45C84.95 4.45 85.11 4.47 85.27 4.47L85.27 13.26C85.11 13.26 84.95 13.27 84.81 13.27C84.67 13.27 84.57 13.29 84.50 13.29L84.36 13.29C84.18 13.30 84.08 13.38 84.08 13.54L84.08 13.82L85.27 13.82L85.89 13.82L87.11 13.82L87.11 13.54C87.11 13.38 87.01 13.30 86.83 13.29L86.69 13.29C86.62 13.29 86.49 13.27 86.35 13.27C86.21 13.27 86.06 13.26 85.89 13.26L85.89 5.49C85.89 5.36 85.89 5.22 85.88 5.08L92.32 13.68C92.39 13.78 92.46 13.82 92.57 13.82L92.92 13.82L92.92 4.47C93.09 4.47 93.23 4.45 93.37 4.45C93.51 4.45 93.62 4.44 93.69 4.44L93.81 4.44C94.00 4.42 94.09 4.34 94.09 4.19L94.09 3.92ZM121.77 8.86C121.77 8.11 121.65 7.41 121.42 6.79C121.20 6.17 120.88 5.64 120.46 5.19C120.04 4.75 119.55 4.40 118.97 4.16C118.40 3.92 117.74 3.79 117.04 3.79C116.34 3.79 115.71 3.92 115.14 4.16C114.56 4.40 114.06 4.75 113.64 5.19C113.22 5.64 112.90 6.17 112.67 6.79C112.45 7.41 112.32 8.11 112.32 8.86C112.32 9.63 112.45 10.33 112.67 10.95C112.90 11.56 113.22 12.10 113.64 12.54C114.06 12.99 114.56 13.33 115.14 13.57C115.71 13.80 116.34 13.93 117.04 13.93C117.74 13.93 118.40 13.80 118.97 13.57C119.55 13.33 120.04 12.99 120.46 12.54C120.88 12.10 121.20 11.56 121.42 10.95C121.65 10.33 121.77 9.63 121.77 8.86ZM121.02 8.86C121.02 9.56 120.93 10.18 120.74 10.72C120.54 11.27 120.27 11.75 119.92 12.12C119.57 12.50 119.15 12.81 118.66 13.01C118.17 13.20 117.64 13.30 117.04 13.30C116.45 13.30 115.92 13.20 115.43 13.01C114.94 12.81 114.52 12.50 114.17 12.12C113.82 11.75 113.54 11.27 113.34 10.72C113.15 10.18 113.06 9.56 113.06 8.86C113.06 8.18 113.15 7.55 113.34 7.00C113.54 6.45 113.82 5.98 114.17 5.60C114.52 5.22 114.94 4.91 115.43 4.72C115.92 4.52 116.45 4.41 117.04 4.41C117.64 4.41 118.17 4.52 118.66 4.72C119.15 4.91 119.57 5.22 119.92 5.60C120.27 5.98 120.54 6.45 120.74 7.00C120.93 7.55 121.02 8.18 121.02 8.86ZM138.60 3.92L137.97 3.92L136.75 3.92L136.75 4.19C136.75 4.34 136.85 4.42 137.03 4.44L137.17 4.44C137.24 4.44 137.35 4.45 137.49 4.45C137.63 4.45 137.80 4.47 137.97 4.47L137.97 12.22C137.97 12.35 137.97 12.49 137.98 12.63L131.57 4.05C131.53 3.99 131.50 3.95 131.46 3.93C131.42 3.92 131.38 3.91 131.31 3.91L130.96 3.91L129.77 3.91L129.77 4.19C129.77 4.34 129.86 4.42 130.05 4.44L130.19 4.44C130.26 4.44 130.35 4.45 130.49 4.45C130.63 4.45 130.79 4.47 130.96 4.47L130.96 13.26C130.79 13.26 130.63 13.27 130.49 13.27C130.35 13.27 130.26 13.29 130.19 13.29L130.05 13.29C129.86 13.30 129.77 13.38 129.77 13.54L129.77 13.82L130.96 13.82L131.57 13.82L132.79 13.82L132.79 13.54C132.79 13.38 132.69 13.30 132.51 13.29L132.37 13.29C132.30 13.29 132.17 13.27 132.03 13.27C131.89 13.27 131.74 13.26 131.57 13.26L131.57 5.49C131.57 5.36 131.57 5.22 131.56 5.08L138.00 13.68C138.07 13.78 138.14 13.82 138.25 13.82L138.60 13.82L138.60 4.47C138.77 4.47 138.91 4.45 139.05 4.45C139.19 4.45 139.30 4.44 139.37 4.44L139.50 4.44C139.68 4.42 139.78 4.34 139.78 4.19L139.78 3.92ZM149.00 3.92L147.81 3.92L147.81 4.19C147.81 4.34 147.91 4.42 148.09 4.44L148.23 4.44C148.30 4.44 148.40 4.45 148.54 4.45C148.68 4.45 148.83 4.47 149.00 4.47L149.00 13.26C148.83 13.26 148.68 13.27 148.54 13.27C148.40 13.27 148.30 13.29 148.23 13.29L148.09 13.29C147.91 13.30 147.83 13.38 147.83 13.54L147.83 13.82L149.00 13.82L154.94 13.82L154.94 13.22L154.94 11.76L154.59 11.76C154.39 11.76 154.31 11.89 154.29 12.11C154.29 12.14 154.28 12.19 154.28 12.29C154.28 12.39 154.28 12.53 154.27 12.74C154.25 12.95 154.24 13.09 154.24 13.22L149.72 13.22L149.72 9.09L153.66 9.09L153.66 8.51L149.72 8.51L149.72 4.51L154.24 4.51C154.27 5.12 154.29 5.50 154.29 5.63C154.31 5.85 154.39 5.96 154.59 5.96L154.94 5.96L154.94 4.51L154.94 3.92ZM181.62 12.21C181.59 12.18 181.55 12.15 181.51 12.15C181.48 12.15 181.47 12.15 181.44 12.17C181.43 12.18 181.40 12.21 181.37 12.22C181.17 12.40 180.96 12.56 180.77 12.70C180.57 12.84 180.36 12.94 180.12 13.03C179.89 13.13 179.63 13.20 179.35 13.24C179.07 13.29 178.77 13.31 178.42 13.31C177.86 13.31 177.31 13.22 176.83 13.01C176.34 12.81 175.94 12.52 175.59 12.14C175.24 11.76 174.94 11.28 174.75 10.74C174.55 10.19 174.45 9.56 174.45 8.86C174.45 8.18 174.55 7.56 174.75 7.01C174.96 6.47 175.24 6.01 175.60 5.61C175.97 5.24 176.40 4.94 176.90 4.73C177.41 4.52 177.95 4.42 178.56 4.42C179.45 4.42 180.28 4.56 181.01 4.89C181.05 5.78 181.09 6.30 181.09 6.41C181.10 6.64 181.19 6.75 181.38 6.75L181.72 6.75L181.72 4.51C180.54 4.03 179.48 3.81 178.56 3.81C177.84 3.81 177.20 3.92 176.60 4.17C176.01 4.42 175.48 4.76 175.06 5.21C174.62 5.66 174.30 6.19 174.06 6.80C173.82 7.42 173.71 8.11 173.71 8.86C173.71 9.63 173.84 10.32 174.06 10.95C174.29 11.58 174.61 12.10 175.01 12.54C175.42 12.99 175.91 13.33 176.48 13.57C177.06 13.80 177.67 13.93 178.36 13.93C178.77 13.93 179.14 13.90 179.49 13.83C179.83 13.76 180.15 13.66 180.45 13.54C180.73 13.41 180.99 13.26 181.23 13.09C181.47 12.91 181.69 12.73 181.90 12.50ZM196.28 11.97C196.08 11.97 196.00 12.08 195.99 12.31C195.99 12.32 195.99 12.38 195.97 12.43C195.96 12.49 195.96 12.59 195.94 12.71C195.93 12.84 195.92 13.01 195.90 13.20L191.81 13.20L191.81 4.47C191.98 4.47 192.12 4.45 192.26 4.45C192.40 4.45 192.51 4.44 192.58 4.44L192.71 4.44C192.89 4.42 192.99 4.34 192.99 4.19L192.99 3.92L191.81 3.92L191.10 3.92L189.91 3.92L189.91 4.19C189.91 4.34 190.01 4.42 190.19 4.44L190.33 4.44C190.40 4.44 190.50 4.45 190.64 4.45C190.78 4.45 190.93 4.47 191.10 4.47L191.10 13.26C190.93 13.26 190.78 13.27 190.64 13.27C190.50 13.27 190.40 13.29 190.33 13.29L190.19 13.29C190.01 13.30 189.91 13.38 189.91 13.54L189.91 13.82L191.10 13.82L196.38 13.82L196.50 13.82L196.63 13.82L196.63 13.55L196.63 12.99L196.63 11.97L196.35 11.97ZM207.87 4.44C208.05 4.42 208.14 4.34 208.14 4.19L208.14 3.91L206.96 3.91L206.25 3.91L205.06 3.91L205.06 4.19C205.06 4.34 205.16 4.42 205.34 4.44L205.48 4.44C205.55 4.44 205.65 4.45 205.79 4.45C205.93 4.45 206.08 4.47 206.25 4.47L206.25 13.26C206.08 13.26 205.93 13.27 205.79 13.27C205.65 13.27 205.55 13.29 205.48 13.29L205.34 13.29C205.16 13.30 205.06 13.38 205.06 13.54L205.06 13.82L206.25 13.82L206.96 13.82L208.14 13.82L208.14 13.54C208.14 13.38 208.05 13.30 207.87 13.29L207.73 13.29C207.66 13.29 207.56 13.27 207.42 13.27C207.28 13.27 207.13 13.26 206.96 13.26L206.96 4.47C207.13 4.47 207.28 4.45 207.42 4.45C207.56 4.45 207.66 4.44 207.73 4.44ZM224.21 12.21C224.18 12.18 224.14 12.15 224.10 12.15C224.07 12.15 224.06 12.15 224.03 12.17C224.01 12.18 223.99 12.21 223.96 12.22C223.76 12.40 223.55 12.56 223.36 12.70C223.16 12.84 222.95 12.94 222.71 13.03C222.47 13.13 222.22 13.20 221.94 13.24C221.66 13.29 221.35 13.31 221.00 13.31C220.44 13.31 219.90 13.22 219.42 13.01C218.93 12.81 218.53 12.52 218.18 12.14C217.83 11.76 217.53 11.28 217.34 10.74C217.14 10.19 217.04 9.56 217.04 8.86C217.04 8.18 217.14 7.56 217.34 7.01C217.55 6.47 217.83 6.01 218.19 5.61C218.55 5.24 218.99 4.94 219.49 4.73C220.00 4.52 220.54 4.42 221.14 4.42C222.04 4.42 222.87 4.56 223.59 4.89C223.64 5.78 223.68 6.30 223.68 6.41C223.69 6.64 223.78 6.75 223.97 6.75L224.31 6.75L224.31 4.51C223.13 4.03 222.07 3.81 221.14 3.81C220.43 3.81 219.79 3.92 219.18 4.17C218.60 4.42 218.06 4.76 217.64 5.21C217.21 5.66 216.89 6.19 216.65 6.80C216.41 7.42 216.30 8.11 216.30 8.86C216.30 9.63 216.43 10.32 216.65 10.95C216.87 11.58 217.20 12.10 217.60 12.54C218.01 12.99 218.50 13.33 219.07 13.57C219.65 13.80 220.26 13.93 220.95 13.93C221.35 13.93 221.73 13.90 222.08 13.83C222.42 13.76 222.74 13.66 223.03 13.54C223.31 13.41 223.58 13.26 223.82 13.09C224.06 12.91 224.28 12.73 224.49 12.50ZM241.00 13.29L240.91 13.29L240.73 13.29C240.65 13.29 240.55 13.27 240.45 13.27L236.42 9.06C236.33 8.96 236.26 8.89 236.18 8.83C236.10 8.78 236.01 8.74 235.91 8.71C236.00 8.68 236.07 8.64 236.14 8.58C236.21 8.53 236.29 8.46 236.38 8.36L240.17 4.45L240.44 4.45C240.52 4.45 240.58 4.44 240.62 4.44L240.70 4.44C240.88 4.42 240.98 4.34 240.98 4.19L240.98 3.91L240.00 3.91L239.88 3.91L238.07 3.91L238.07 4.19C238.07 4.34 238.17 4.42 238.35 4.44L238.52 4.44C238.62 4.44 238.74 4.45 238.91 4.45L239.36 4.45L235.69 8.22C235.63 8.27 235.58 8.33 235.54 8.36C235.49 8.39 235.44 8.40 235.38 8.43C235.33 8.44 235.28 8.47 235.21 8.47C235.14 8.48 235.06 8.48 234.98 8.48L234.39 8.48L234.39 4.45C234.56 4.45 234.71 4.44 234.85 4.44C234.99 4.44 235.09 4.42 235.16 4.42L235.30 4.42C235.48 4.41 235.56 4.33 235.56 4.17L235.56 3.91L234.39 3.91L233.67 3.91L232.50 3.91L232.50 4.17C232.50 4.33 232.60 4.41 232.78 4.42L232.90 4.42C232.97 4.42 233.09 4.44 233.23 4.44C233.37 4.44 233.51 4.45 233.67 4.45L233.67 13.26C233.51 13.26 233.37 13.27 233.23 13.27C233.09 13.27 232.97 13.29 232.90 13.29L232.78 13.29C232.60 13.30 232.50 13.38 232.50 13.54L232.50 13.82L233.67 13.82L234.39 13.82L235.56 13.82L235.56 13.54C235.56 13.38 235.48 13.30 235.30 13.29L235.16 13.29C235.09 13.29 234.99 13.27 234.85 13.27C234.71 13.27 234.56 13.26 234.39 13.26L234.39 9.04L235.03 9.04C235.14 9.04 235.24 9.04 235.31 9.06C235.38 9.07 235.44 9.09 235.49 9.11C235.55 9.14 235.61 9.17 235.65 9.21C235.69 9.25 235.73 9.28 235.79 9.34L239.64 13.27C239.50 13.27 239.33 13.29 239.16 13.29L238.76 13.29L238.57 13.29C238.39 13.30 238.29 13.38 238.29 13.54L238.29 13.82L240.17 13.82L240.23 13.82L240.39 13.82L240.98 13.82L241.28 13.82L241.28 13.54C241.28 13.38 241.18 13.30 241.00 13.29Z"></path></g></svg>