<svg xmlns="http://www.w3.org/2000/svg" data-name="Layer 1" viewBox="0 0 64 64"><path d="M16,29A25.9,25.9,0,0,1,6.22,49.34L1.38,53.22a1,1,0,0,0-.32,1.11A1,1,0,0,0,2,55H20a13,13,0,0,0,24,0H62a1,1,0,0,0,.94-.67,1,1,0,0,0-.32-1.11l-4.84-3.88A25.9,25.9,0,0,1,48,29a16,16,0,0,0-9.93-14.8A7.88,7.88,0,0,0,40,9,8,8,0,0,0,24,9a7.87,7.87,0,0,0,1.93,5.2A16,16,0,0,0,16,29ZM39.78,57.78A11,11,0,0,1,22.21,55H41.79A10.78,10.78,0,0,1,39.78,57.78ZM32,3a6,6,0,0,1,6,6,5.91,5.91,0,0,1-2.06,4.51,15.47,15.47,0,0,0-7.88,0A5.91,5.91,0,0,1,26,9,6,6,0,0,1,32,3Zm0,12A14,14,0,0,1,46,29,27.9,27.9,0,0,0,56.53,50.9L59.15,53H4.85l2.62-2.1A27.9,27.9,0,0,0,18,29,14,14,0,0,1,32,15Z"/></svg>