<?xml version="1.0" encoding="UTF-8"?>
<!DOCTYPE svg PUBLIC "-//W3C//DTD SVG 1.1//EN" "http://www.w3.org/Graphics/SVG/1.1/DTD/svg11.dtd">
<!-- Creator: CorelDRAW -->
<svg xmlns="http://www.w3.org/2000/svg" xml:space="preserve" width="7.33333in" height="7.33333in" style="shape-rendering:geometricPrecision; text-rendering:geometricPrecision; image-rendering:optimizeQuality; fill-rule:evenodd; clip-rule:evenodd"
viewBox="0 0 7.33333 7.33333"
 xmlns:xlink="http://www.w3.org/1999/xlink">
 <defs>
  <style type="text/css">
   <![CDATA[
    .fil1 {fill:black}
    .fil0 {fill:black;fill-rule:nonzero}
   ]]>
  </style>
 </defs>
 <g id="Layer_x0020_1">
  <metadata id="CorelCorpID_0Corel-Layer"/>
  <g id="_322458520">
   <path id="_322459576" class="fil0" d="M2.89515 1.57906l3.1256 0c0.0567008,0 0.108193,0.0231496 0.145476,0.060437 0.0372874,0.0372835 0.060437,0.0887756 0.060437,0.145476l0 2.34256c0,0.0566969 -0.0231496,0.108189 -0.060437,0.145472 -0.0372835,0.0372874 -0.0887756,0.060437 -0.145476,0.060437l-0.0412362 0 0 0.652236c0,0.0360276 -0.0292087,0.0652362 -0.0652402,0.0652362 -0.0222874,0 -0.0419685,-0.0111811 -0.0537323,-0.0282402l-0.580791 -0.689232 -0.700902 0c-0.0360276,0 -0.0652362,-0.0292087 -0.0652362,-0.0652402l0 -1.77986c0,-0.0206772 -0.00850787,-0.0395236 -0.0222126,-0.0532244 -0.0136969,-0.0137008 -0.0325472,-0.0222087 -0.0532244,-0.0222087l-1.6837 0c-0.0360276,0 -0.0652362,-0.0292087 -0.0652362,-0.0652402l0 -0.562689c0,-0.0567008 0.0231457,-0.108193 0.0604331,-0.145476 0.0372835,-0.0372874 0.0887756,-0.060437 0.145476,-0.060437zm3.1256 0.130476l-3.1256 0c-0.0206772,0 -0.0395276,0.00850787 -0.0532244,0.0222126 -0.0137047,0.0136969 -0.0222126,0.0325472 -0.0222126,0.0532244l0 0.497453 1.61846 0c0.0567008,0 0.108193,0.0231457 0.145476,0.0604331 0.0372874,0.0372835 0.060437,0.0887795 0.060437,0.145476l0 1.71463 0.665598 0 0 3.93701e-006c0.018563,7.87402e-006 0.0369921,0.0078937 0.0498898,0.0231969l-0.0498898 0.0420354 0.0496929 -0.0417913 0.489657 0.581083 0 -0.539291c0,-0.0360276 0.0292087,-0.0652362 0.0652362,-0.0652362l0.106476 0c0.0206772,0 0.0395276,-0.00850787 0.0532244,-0.0222087 0.0137047,-0.0137008 0.0222126,-0.0325512 0.0222126,-0.0532244l0 -2.34256c0,-0.0206772 -0.00850787,-0.0395276 -0.0222126,-0.0532244 -0.0136969,-0.0137047 -0.0325472,-0.0222126 -0.0532244,-0.0222126z"/>
   <path id="_322459192" class="fil0" d="M4.43818 2.4129l-3.1256 0c-0.0206772,0 -0.0395276,0.00850787 -0.0532244,0.0222087 -0.0137047,0.0137008 -0.0222126,0.0325472 -0.0222126,0.0532244l0 2.34256c0,0.0206772 0.00850787,0.0395236 0.0222126,0.0532244 0.0136969,0.0137008 0.0325472,0.0222087 0.0532244,0.0222087l0.106476 0c0.0360276,0 0.0652362,0.0292087 0.0652362,0.0652402l0 0.539287 0.489657 -0.581083 0.0496929 0.0417953 -0.0498898 -0.0420394c0.0128976,-0.0153031 0.0313268,-0.023185 0.0498898,-0.0231969l0 -3.93701e-006 2.41454 0c0.0206772,0 0.0395276,-0.00850787 0.0532244,-0.0222087 0.0137047,-0.0137008 0.0222126,-0.0325472 0.0222126,-0.0532244l0 -2.34256c0,-0.0206772 -0.00850787,-0.0395236 -0.0222126,-0.0532244 -0.0136969,-0.0137008 -0.0325472,-0.0222087 -0.0532244,-0.0222087zm-3.1256 -0.130476l3.1256 0c0.0567008,0 0.108193,0.0231457 0.145476,0.0604331 0.0372874,0.0372835 0.060437,0.0887795 0.060437,0.145476l0 2.34256c0,0.0566969 -0.0231496,0.108193 -0.060437,0.145476 -0.0372835,0.0372874 -0.0887756,0.0604331 -0.145476,0.0604331l-2.3846 0 -0.580791 0.689236c-0.0117638,0.0170551 -0.0314449,0.0282402 -0.0537323,0.0282402 -0.0360276,0 -0.0652402,-0.0292126 -0.0652402,-0.0652402l0 -0.652236 -0.0412362 0c-0.0567008,0 -0.108193,-0.0231457 -0.145476,-0.0604331 -0.0372874,-0.0372835 -0.0604331,-0.0887795 -0.0604331,-0.145476l0 -2.34256c0,-0.0566969 0.0231457,-0.108193 0.0604331,-0.145476 0.0372835,-0.0372874 0.0887756,-0.0604331 0.145476,-0.0604331z"/>
   <path id="_322459144" class="fil0" d="M1.77635 3.24974c-0.0360276,0 -0.0652362,0.0292087 -0.0652362,0.0652362 0,0.0360315 0.0292087,0.0652402 0.0652362,0.0652402l0.302232 0c0.0360315,0 0.0652402,-0.0292087 0.0652402,-0.0652402 0,-0.0360276 -0.0292087,-0.0652362 -0.0652402,-0.0652362l-0.302232 0z"/>
   <path id="_322459384" class="fil0" d="M2.72426 3.24974c-0.0360315,0 -0.0652402,0.0292087 -0.0652402,0.0652362 0,0.0360315 0.0292087,0.0652402 0.0652402,0.0652402l0.302228 0c0.0360276,0 0.0652362,-0.0292087 0.0652362,-0.0652402 0,-0.0360276 -0.0292087,-0.0652362 -0.0652362,-0.0652362l-0.302228 0z"/>
   <path id="_322458976" class="fil0" d="M3.67217 3.24974c-0.0360276,0 -0.0652362,0.0292087 -0.0652362,0.0652362 0,0.0360315 0.0292087,0.0652402 0.0652362,0.0652402l0.302228 0c0.0360276,0 0.0652362,-0.0292087 0.0652362,-0.0652402 0,-0.0360276 -0.0292087,-0.0652362 -0.0652362,-0.0652362l-0.302228 0z"/>
  </g>
  <path class="fil1" d="M-0 0l7.33333 0 0 7.33333 -7.33333 0 0 -7.33333zm0.319996 0.319996l6.69334 0 0 6.69334 -6.69334 0 0 -6.69334z"/>
 </g>
</svg>
